PathFileType	4	(X/Y/Z)	./resultDataOpenSim/trcMotMarkerGrf/sub10/qtm-05-07.trc
DataRate	CameraRate	NumFrames	NumMarkers	Units	OrigDataRate	OrigDataStartFrame	OrigNumFrames
250.000000	250.000000	8	24	m	250.000000	129	513
Frame#	Time	L.Toe.Tip			R.Toe.Tip			L.Ankle.Lat			R.Ankle.Lat			L.Ankle.Med			R.Ankle.Med			L.Heel			R.Heel			L.Knee.Lat			R.Knee.Lat			L.Knee.Med			R.Knee.Med			L.Thigh.Upper			R.Thigh.Upper			L.ASIS			R.ASIS			V.Sacral			L.Acromium			R.Acromium			C7			L.Elbow			R.Elbow			L.Wrist.Lat			R.Wrist.Lat
		X1	Y1	Z1	X2	Y2	Z2	X3	Y3	Z3	X4	Y4	Z4	X5	Y5	Z5	X6	Y6	Z6	X7	Y7	Z7	X8	Y8	Z8	X9	Y9	Z9	X10	Y10	Z10	X11	Y11	Z11	X12	Y12	Z12	X13	Y13	Z13	X14	Y14	Z14	X15	Y15	Z15	X16	Y16	Z16	X17	Y17	Z17	X18	Y18	Z18	X19	Y19	Z19	X20	Y20	Z20	X21	Y21	Z21	X22	Y22	Z22	X23	Y23	Z23	X24	Y24	Z24

129	0.512	-0.32736338	0.07159025	-0.1451999	-0.7022564	0.039650073	0.046917783	-0.45934065	0.1008188	-0.15528043	-0.84500759	0.056313662	0.072316613	-0.44183959	0.11872064	-0.073281969	-0.81941762	0.07967795	-0.012212565	-0.51739252	0.068176163	-0.10263984	-0.89347443	0.032575007	0.021066594	-0.41202386	0.48902135	-0.16539695	-0.71449924	0.43886483	0.11426488	-0.39285466	0.46393838	-0.047463759	-0.69604405	0.43922049	-0.017610907	-0.58362275	0.82763257	-0.21048356	-0.66101711	0.85065918	0.16748766	-0.54549057	0.93395008	-0.13617515	-0.57345116	0.93644291	0.10700082	-0.74847981	0.93841079	-0.050261035	-0.61024239	1.4128345	-0.16561172	-0.63381686	1.403233	0.15406856	-0.6989853	1.4349184	-0.01685954	-0.77315256	1.1205082	-0.24599017	-0.67599253	1.0523943	0.2227414	-0.71078652	0.88660147	-0.27780977	-0.49500868	0.88958	0.261797
130	0.516	-0.30990428	0.070645337	-0.14285865	-0.70230174	0.039642446	0.046892953	-0.44238158	0.098076755	-0.15486479	-0.84479872	0.056349062	0.072002659	-0.42590853	0.11682997	-0.072751319	-0.81928282	0.079592574	-0.012398309	-0.50030929	0.064844664	-0.10253114	-0.89348446	0.032622515	0.020855341	-0.40512824	0.48779834	-0.16544849	-0.71283774	0.43800014	0.11310509	-0.38706674	0.46304544	-0.047452759	-0.69379201	0.43860093	-0.017927946	-0.57743208	0.82678294	-0.21062617	-0.65701696	0.84976012	0.16717889	-0.5393661	0.9329759	-0.1359736	-0.56888505	0.93540367	0.10699451	-0.74362301	0.93725246	-0.05098502	-0.60507711	1.4116756	-0.16573442	-0.62862807	1.4020523	0.15395275	-0.69385203	1.4337433	-0.016975271	-0.76938259	1.1201714	-0.24640203	-0.66790877	1.0508174	0.2232284	-0.70826491	0.88603643	-0.27864772	-0.48436397	0.89047999	0.26082611
131	0.52	-0.29258394	0.069489983	-0.14049055	-0.70232176	0.039638985	0.04689888	-0.42551613	0.095464317	-0.15445288	-0.84461065	0.056391871	0.07170721	-0.41004507	0.11503657	-0.07227821	-0.81914369	0.079503749	-0.012581857	-0.48330506	0.061746685	-0.10238303	-0.89348541	0.032692759	0.020663441	-0.39823656	0.48643903	-0.16560391	-0.71100618	0.43707334	0.11202588	-0.38127776	0.4619335	-0.047428267	-0.69117167	0.43801889	-0.018071932	-0.57120048	0.82587098	-0.21073402	-0.65302809	0.84883266	0.16687228	-0.53319265	0.93196952	-0.13572708	-0.56441589	0.93433344	0.10700009	-0.7387635	0.93609327	-0.051711558	-0.59993787	1.4104942	-0.16588075	-0.62347186	1.4008217	0.15385489	-0.68879483	1.4325144	-0.017073839	-0.7658293	1.1197846	-0.2472048	-0.65982074	1.0492168	0.22367917	-0.70567049	0.88543926	-0.27950122	-0.47374089	0.89137715	0.25981844
132	0.524	-0.27544394	0.068133503	-0.13809344	-0.70233553	0.039629654	0.04691386	-0.40877382	0.092947554	-0.15401893	-0.84450899	0.056444464	0.071482789	-0.39426226	0.11333245	-0.071891243	-0.81899085	0.079413107	-0.01276684	-0.46640464	0.058896124	-0.10221115	-0.89347424	0.032786959	0.020482499	-0.39144971	0.48493327	-0.16585173	-0.70880468	0.43612285	0.11127309	-0.37537786	0.46059416	-0.047317791	-0.68830161	0.43742874	-0.01812609	-0.56492951	0.82489147	-0.21080661	-0.64904618	0.84787378	0.16656166	-0.52697589	0.93093425	-0.13543548	-0.55998331	0.93324338	0.10702522	-0.73390515	0.93493395	-0.052436211	-0.59484241	1.4093011	-0.16605949	-0.61834165	1.3995406	0.15376757	-0.68379869	1.4312355	-0.01715649	-0.76221725	1.1193583	-0.24797574	-0.65173208	1.0475917	0.22409288	-0.70298499	0.88480607	-0.28036532	-0.46317557	0.89226922	0.25878133
133	0.528	-0.25853157	0.066605404	-0.13566224	-0.70235968	0.039593561	0.04691786	-0.39216821	0.090518313	-0.15357876	-0.8444838	0.056501891	0.07131041	-0.37857232	0.11171164	-0.071608952	-0.81881809	0.079321492	-0.012959297	-0.44971264	0.05634999	-0.10217371	-0.89345095	0.032906468	0.020294344	-0.38486754	0.48326816	-0.16615586	-0.70630293	0.43516864	0.11079558	-0.36939708	0.45903168	-0.047156957	-0.6853359	0.43677653	-0.018190692	-0.55863092	0.8238377	-0.21085118	-0.64505738	0.84686907	0.16624508	-0.5207159	0.92986814	-0.13510185	-0.55555598	0.93213564	0.10706444	-0.72904834	0.93377478	-0.053158911	-0.5897737	1.4080814	-0.16626366	-0.61321192	1.3982035	0.15367226	-0.67871582	1.429909	-0.017260705	-0.75843936	1.1188932	-0.24852449	-0.6436457	1.0459434	0.22446955	-0.70020317	0.88413829	-0.28124156	-0.45268482	0.89315456	0.25771796
134	0.532	-0.2418837	0.06497759	-0.13319812	-0.70239926	0.039514186	0.046904675	-0.37570404	0.088204424	-0.15317121	-0.8444895	0.056567775	0.071153609	-0.36299308	0.11018409	-0.07141272	-0.81862666	0.079233103	-0.013164515	-0.43333642	0.054137277	-0.10244469	-0.89341959	0.033050432	0.020083107	-0.37854003	0.48143154	-0.16647338	-0.70368229	0.43421757	0.11042905	-0.36349432	0.45724925	-0.047087336	-0.68235666	0.43603339	-0.018313091	-0.55230512	0.82270598	-0.21086933	-0.64104537	0.84578799	0.16592649	-0.51440278	0.92876958	-0.13473002	-0.5511216	0.93100877	0.10711283	-0.72419253	0.93261576	-0.053880647	-0.58468502	1.4067998	-0.16646391	-0.60806394	1.3968127	0.15355774	-0.67335705	1.428531	-0.01743689	-0.75453059	1.1183813	-0.24889757	-0.63556451	1.0442758	0.22480941	-0.69732546	0.88344086	-0.28213809	-0.44225501	0.89402072	0.2566178
135	0.536	-0.22554353	0.063351025	-0.13072324	-0.70243693	0.039405012	0.046896322	-0.35941455	0.086052223	-0.15284063	-0.84448552	0.056656196	0.070993407	-0.34754362	0.10878198	-0.071245667	-0.81842332	0.079153676	-0.013385193	-0.41730034	0.052226439	-0.10303256	-0.89338545	0.033212143	0.019845132	-0.37245473	0.47942008	-0.16677614	-0.70105772	0.43326955	0.11006755	-0.35780237	0.45524447	-0.047216876	-0.67937415	0.43519494	-0.01849351	-0.54594102	0.82150156	-0.21085765	-0.63699863	0.84459758	0.16561008	-0.50802794	0.92763861	-0.13432864	-0.54668107	0.92985813	0.10717349	-0.71933716	0.93145686	-0.054602058	-0.57954638	1.4054354	-0.16664228	-0.60289323	1.3953794	0.1534213	-0.66777773	1.4270956	-0.017677973	-0.75055519	1.117816	-0.24918444	-0.62748994	1.0425922	0.22511104	-0.69436594	0.88271224	-0.28304739	-0.43186398	0.89484912	0.25546303
136	0.54	-0.20955565	0.061820307	-0.12827898	-0.70244847	0.039307657	0.046922734	-0.34336101	0.084102326	-0.15262692	-0.84445424	0.056776123	0.070827747	-0.33225141	0.10753851	-0.071053817	-0.81821258	0.07908447	-0.013620407	-0.40154441	0.050556044	-0.10375575	-0.8933512	0.033382608	0.019589416	-0.36652103	0.47725026	-0.16705468	-0.69846023	0.4323227	0.10968137	-0.3523056	0.45302021	-0.047520999	-0.67635572	0.43427089	-0.01870791	-0.53952642	0.8202292	-0.21081664	-0.63292551	0.84330642	0.16528679	-0.50158584	0.92647204	-0.13390423	-0.54224116	0.92867861	0.10725402	-0.71448144	0.93029795	-0.055323549	-0.57436728	1.4039968	-0.16680914	-0.5976984	1.3939065	0.15325977	-0.66232045	1.4256082	-0.017909772	-0.74653954	1.1171961	-0.24939422	-0.6194222	1.0408939	0.22537259	-0.69136177	0.88194458	-0.28393372	-0.42151293	0.89563926	0.25425011
